<svg xmlns="http://www.w3.org/2000/svg" xmlns:xlink="http://www.w3.org/1999/xlink" width="460.109" height="458.633" viewBox="0 0 460.109 458.633">
  <defs>
    <linearGradient id="linear-gradient" x1="0.5" x2="0.5" y2="1" gradientUnits="objectBoundingBox">
      <stop offset="0" stop-opacity="0.788"/>
      <stop offset="0.067" stop-color="#01f" stop-opacity="0"/>
      <stop offset="1" stop-color="#fff" stop-opacity="0"/>
    </linearGradient>
  </defs>
  <g id="game_logo" data-name="game logo" transform="translate(0)">
    <rect id="Logo_Shadow" data-name="Logo Shadow" width="396" height="36" rx="18" transform="translate(51.569 422.633)" fill="url(#linear-gradient)"/>
    <path id="Icon_ionic-ios-musical-note" data-name="Icon ionic-ios-musical-note" d="M63.205,3.422c-1.111.213-27.9,5.7-28.891,5.887A2.1,2.1,0,0,0,32.4,11.2h0V71.511a6.521,6.521,0,0,1-.567,2.766,6.3,6.3,0,0,1-3.806,3c-.78.26-1.844.5-3.1.78C19.231,79.336,9.7,81.511,9.7,90.306c0,7.116,5.13,10.521,8.275,11.135a17.762,17.762,0,0,0,3.263.236c1.939,0,8.511-.78,12.1-3.121,2.6-1.7,5.7-5.059,5.7-11.3V32.951a1.876,1.876,0,0,1,1.513-1.844L62.5,26.615A3.8,3.8,0,0,0,65.522,22.9V5.219A1.869,1.869,0,0,0,63.205,3.422Z" transform="matrix(0.875, 0.485, -0.485, 0.875, 404.438, 116.075)" fill="#fff"/>
    <path id="Icon_ionic-ios-musical-note-2" data-name="Icon ionic-ios-musical-note" d="M63.205,3.422c-1.111.213-27.9,5.7-28.891,5.887A2.1,2.1,0,0,0,32.4,11.2h0V71.511a6.521,6.521,0,0,1-.567,2.766,6.3,6.3,0,0,1-3.806,3c-.78.26-1.844.5-3.1.78C19.231,79.336,9.7,81.511,9.7,90.306c0,7.116,5.13,10.521,8.275,11.135a17.762,17.762,0,0,0,3.263.236c1.939,0,8.511-.78,12.1-3.121,2.6-1.7,5.7-5.059,5.7-11.3V32.951a1.876,1.876,0,0,1,1.513-1.844L62.5,26.615A3.8,3.8,0,0,0,65.522,22.9V5.219A1.869,1.869,0,0,0,63.205,3.422Z" transform="matrix(0.799, -0.602, 0.602, 0.799, -9.781, 160.937)" fill="#fff"/>
    <path id="Icon_ionic-ios-musical-note-3" data-name="Icon ionic-ios-musical-note" d="M63.205,3.422c-1.111.213-27.9,5.7-28.891,5.887A2.1,2.1,0,0,0,32.4,11.2h0V71.511a6.521,6.521,0,0,1-.567,2.766,6.3,6.3,0,0,1-3.806,3c-.78.26-1.844.5-3.1.78C19.231,79.336,9.7,81.511,9.7,90.306c0,7.116,5.13,10.521,8.275,11.135a17.762,17.762,0,0,0,3.263.236c1.939,0,8.511-.78,12.1-3.121,2.6-1.7,5.7-5.059,5.7-11.3V32.951a1.876,1.876,0,0,1,1.513-1.844L62.5,26.615A3.8,3.8,0,0,0,65.522,22.9V5.219A1.869,1.869,0,0,0,63.205,3.422Z" transform="translate(126.707 8.054) rotate(-10)" fill="#fff"/>
    <path id="Path_1" data-name="Path 1" d="M558.7,258.206s27.3,84.47,18.015,89.818c-32.243,18.712-30.794,43.831-30.794,47.583s5.518,119.223,5.518,119.223l-36.644.642s-21.417.363-21.417-.642c-.525-60.762-1.046-105.7-1.453-112.006-1.453-21.654-22.359-22.99-22.359-22.99s3.794-14.1,9.309-34l-7.2-2.326-.871,2.268c-1.453,3.741-5.518,5.882-9,4.811a6.255,6.255,0,0,1-4.587-6.147,7.327,7.327,0,0,1,.521-2.674l3.776-10.16c1.453-3.741,5.515-5.882,9-4.543a6.255,6.255,0,0,1,4.587,6.147,7.272,7.272,0,0,1-.525,2.674L474,337.429l6.65,2.141c3.105-11.176,6.646-23.737,10.352-36.462l-6.971-2.246-.871,2.271c-1.453,3.741-5.515,5.882-9,4.811a6.255,6.255,0,0,1-4.587-6.147,7.272,7.272,0,0,1,.525-2.674l3.773-10.16c1.453-3.741,5.518-5.878,9-4.543a6.255,6.255,0,0,1,4.587,6.147,7.362,7.362,0,0,1-.521,2.674l-.582,1.549,6.479,2.094c3.63-12.536,7.346-25.036,10.83-36.3l-7.317-2.351-.889,2.275c-1.449,3.745-5.515,5.882-9,4.811a6.255,6.255,0,0,1-4.59-6.147,7.272,7.272,0,0,1,.525-2.674l3.773-10.16c1.453-3.741,5.518-5.878,9-4.543a6.255,6.255,0,0,1,4.587,6.147,7.328,7.328,0,0,1-.521,2.674l-.582,1.546,6.939,2.246c3.891-12.337,7.407-22.8,10.134-29.539l-7.542-2.46-.55,1.451c-1.164,3.476-5.229,5.08-8.713,4.013a6.252,6.252,0,0,1-4.7-5.991,6.138,6.138,0,0,1,.357-2.032l3.484-9.089c1.164-3.472,5.229-5.08,8.713-3.991a6.255,6.255,0,0,1,4.7,5.991,6.139,6.139,0,0,1-.357,2.032l-.61,1.6,7.853,2.54c11.615-25.559,18.918-33.9,41.813-32.616,23.812,1.339,34.845,32.079,22.359,47.583A206.927,206.927,0,0,1,558.7,258.206Z" transform="translate(-272.848 -114.56)" fill="#f6fafb"/>
    <text id="Bass_Case" data-name="Bass  Case" transform="translate(52.069 336.441)" fill="#f6fafb" font-size="82" font-family="OddDogRegular, Odd Dog"><tspan x="0" y="0" xml:space="preserve">Bass  Case</tspan></text>
  </g>
</svg>
